<svg xmlns="http://www.w3.org/2000/svg" viewBox="0 0 64 64"><circle cx="32" cy="32" r="32" fill="#FCE4EE"/><circle cx="9.6" cy="24.6" r="5.2" fill="#FFFFFF" stroke="#FFFFFF" stroke-width="5.0" stroke-linejoin="round" stroke-linecap="round"/><circle cx="54.4" cy="24.6" r="5.2" fill="#FFFFFF" stroke="#FFFFFF" stroke-width="5.0" stroke-linejoin="round" stroke-linecap="round"/><path d="M22.5 15h19c5.8 0 10 4.2 10 10v17c0 5.8-4.2 10-10 10h-19c-5.8 0-10-4.2-10-10V25c0-5.8 4.2-10 10-10z" fill="#FFFFFF" stroke="#FFFFFF" stroke-width="5.0" stroke-linejoin="round" stroke-linecap="round"/><path d="M32 10.6c2.8-4 9-4.4 9 .6 0 4.2-5.4 4.6-9 4.6-3.6 0-9-.4-9-4.6 0-5 6.2-4.6 9-.6z" fill="#FFFFFF" stroke="#FFFFFF" stroke-width="5.0" stroke-linejoin="round" stroke-linecap="round"/><circle cx="9.6" cy="24.6" r="5.2" fill="#E8A0BC"/><circle cx="54.4" cy="24.6" r="5.2" fill="#E8A0BC"/><path d="M22.5 15h19c5.8 0 10 4.2 10 10v17c0 5.8-4.2 10-10 10h-19c-5.8 0-10-4.2-10-10V25c0-5.8 4.2-10 10-10z" fill="#E8CBBC"/><path d="M32 10.6c2.8-4 9-4.4 9 .6 0 4.2-5.4 4.6-9 4.6-3.6 0-9-.4-9-4.6 0-5 6.2-4.6 9-.6z" fill="#F2789E"/><clipPath id="clip7"><path d="M22.5 15h19c5.8 0 10 4.2 10 10v17c0 5.8-4.2 10-10 10h-19c-5.8 0-10-4.2-10-10V25c0-5.8 4.2-10 10-10z"/></clipPath><g clip-path="url(#clip7)"><ellipse cx="24" cy="22" rx="12.5" ry="8.5" fill="#FFFFFF" opacity="0.18"/><ellipse cx="32" cy="66" rx="26" ry="20" fill="#A2637A" opacity="0.22"/></g><circle cx="32" cy="12.4" r="2.2" fill="#D95C86"/><circle cx="24.6" cy="31.6" r="4.8" fill="#FFFFFF"/><circle cx="24.6" cy="32.176" r="2.4" fill="#2A2620"/><circle cx="23.16" cy="29.92" r="1.152" fill="#FFFFFF"/><circle cx="39.4" cy="31.6" r="4.8" fill="#FFFFFF"/><circle cx="39.4" cy="32.176" r="2.4" fill="#2A2620"/><circle cx="37.96" cy="29.92" r="1.152" fill="#FFFFFF"/><path d="M26.8 42.6c2.6 3.2 7.800000000000001 3.2 10.4 0" fill="none" stroke="#D95C86" stroke-width="2.4" stroke-linecap="round"/><circle cx="19.8" cy="38.8" r="2.6" fill="#F2A0B8" opacity="0.75"/><circle cx="44.2" cy="38.8" r="2.6" fill="#F2A0B8" opacity="0.75"/></svg>